<?xml version="1.0" encoding="UTF-8"?>
<!DOCTYPE svg PUBLIC "-//W3C//DTD SVG 1.1//EN" "http://www.w3.org/Graphics/SVG/1.1/DTD/svg11.dtd">
<!-- Creator: CorelDRAW -->
<svg xmlns="http://www.w3.org/2000/svg" xml:space="preserve" width="10.6667in" height="10.6667in" version="1.1" style="shape-rendering:geometricPrecision; text-rendering:geometricPrecision; image-rendering:optimizeQuality; fill-rule:evenodd; clip-rule:evenodd"
viewBox="0 0 10666.66 10666.66"
 xmlns:xlink="http://www.w3.org/1999/xlink"
 xmlns:xodm="http://www.corel.com/coreldraw/odm/2003">
 <defs>
  <style type="text/css">
   <![CDATA[
    .fil0 {fill:#A05DCE;fill-opacity:0.301961}
    .fil1 {fill:#D47CFD;fill-opacity:0.301961}
   ]]>
  </style>
 </defs>
 <g id="Layer_x0020_1">
  <metadata id="CorelCorpID_0Corel-Layer"/>
  <g id="_2167686408576">
   <g>
    <image x="-0" y="-0.01" width="10666.66" height="10666.67" xlink:href="aptivi-logo-ios_Images\aptivi-logo-ios_ImgID1.png"/>
   </g>
   <g>
    <path class="fil0" d="M2304.01 9193.85c22.22,16.61 -2.07,7.88 39.37,12.17l5802.45 -2.16c333.56,0 329.03,64.09 90.59,-523.56l-2384.43 -5927.98c-30.17,-74.98 -104.67,-300.05 -145.66,-347.16 -1.85,69.2 -287.24,735.61 -336.15,860.42l-2384.27 5924.96 -681.91 3.3z"/>
    <path class="fil1" d="M2304.01 9193.85l681.91 -3.3 2384.27 -5924.96c48.92,-124.81 334.31,-791.22 336.15,-860.42 -3.57,-50.53 -144.68,-375.12 -173.95,-447.9l-133.85 -335.08c-80.35,-207.44 -125.67,-12.87 -184.65,133.44l-2805.74 6975.35c-32.6,80.76 -62.8,158.53 -95.03,238.52 -24.13,59.87 -114.35,219.18 -9.1,224.35z"/>
   </g>
   <g>
    <path class="fil0" d="M2304.01 9193.85c22.22,16.61 -2.07,7.88 39.37,12.17l5802.45 -2.16c333.56,0 329.03,64.09 90.59,-523.56l-2384.43 -5927.98c-30.17,-74.98 -104.67,-300.05 -145.66,-347.16 -1.85,69.2 -287.24,735.61 -336.15,860.42l-2384.27 5924.96 -681.91 3.3z"/>
    <path class="fil1" d="M2304.01 9193.85l681.91 -3.3 2384.27 -5924.96c48.92,-124.81 334.31,-791.22 336.15,-860.42 -3.57,-50.53 -144.68,-375.12 -173.95,-447.9l-133.85 -335.08c-80.35,-207.44 -125.67,-12.87 -184.65,133.44l-2805.74 6975.35c-32.6,80.76 -62.8,158.53 -95.03,238.52 -24.13,59.87 -114.35,219.18 -9.1,224.35z"/>
   </g>
   <g>
   </g>
   <g>
    <image x="1837.69" y="1115.23" width="6996" height="8507.3" xlink:href="aptivi-logo-ios_Images\aptivi-logo-ios_ImgID2.png"/>
   </g>
  </g>
 </g>
</svg>
